<svg width="163" height="50" viewBox="0 0 163 50" fill="none" xmlns="http://www.w3.org/2000/svg">
<path d="M15.0105 18.03C15.8786 18.2194 16.6205 18.4799 17.2361 18.8113C17.8674 19.1428 18.3725 19.5295 18.7513 19.9714C19.1459 20.4134 19.43 20.9027 19.6036 21.4393C19.7931 21.976 19.8878 22.5363 19.8878 23.1203C19.8878 23.657 19.8009 24.1857 19.6273 24.7066C19.4537 25.2275 19.2012 25.7247 18.8697 26.1982C18.554 26.6559 18.1594 27.0742 17.6859 27.453C17.2124 27.816 16.6757 28.1159 16.0759 28.3527C14.9395 28.7946 13.148 29.0156 10.7015 29.0156H0.544546V28.4237H1.34953C1.71256 28.4237 2.03613 28.3922 2.32024 28.329C2.60435 28.2659 2.84111 28.1238 3.03051 27.9029C3.23571 27.6819 3.38565 27.3583 3.48036 26.9321C3.59084 26.506 3.64609 25.9299 3.64609 25.2038V11.3061C3.64609 10.5484 3.59084 9.95653 3.48036 9.53036C3.36987 9.10419 3.21203 8.78852 3.00684 8.58332C2.80165 8.36235 2.557 8.22819 2.27289 8.18083C1.98878 8.1177 1.68099 8.08613 1.34953 8.08613H0.544546V7.49423H9.8255C12.8087 7.49423 15.0658 7.99932 16.5968 9.00949C18.1436 10.0197 18.917 11.4323 18.917 13.2475C18.917 14.3366 18.5856 15.3073 17.9227 16.1596C17.2597 16.9962 16.289 17.6196 15.0105 18.03ZM6.70028 27.453C7.89986 27.7371 9.10733 27.8792 10.3227 27.8792C11.2855 27.8792 12.1378 27.7608 12.8797 27.524C13.6215 27.2873 14.2371 26.9716 14.7264 26.577C15.2157 26.1666 15.5866 25.6931 15.8392 25.1565C16.0917 24.604 16.218 24.02 16.218 23.4044C16.218 22.7257 16.0838 22.0865 15.8155 21.4867C15.5472 20.8869 15.1289 20.366 14.5607 19.9241C14.0082 19.4821 13.3059 19.1349 12.4535 18.8823C11.617 18.6298 10.6305 18.5035 9.49404 18.5035C8.83111 18.5035 8.27078 18.5114 7.81305 18.5272C7.35531 18.543 6.98439 18.5824 6.70028 18.6456V27.453ZM6.70028 17.1777C7.09488 17.2566 7.53683 17.3197 8.02613 17.3671C8.53122 17.3987 9.08365 17.4144 9.68344 17.4144C11.7827 17.4144 13.2901 17.0356 14.2055 16.278C15.121 15.5204 15.5787 14.4707 15.5787 13.1291C15.5787 12.5135 15.4446 11.9295 15.1763 11.3771C14.9237 10.8089 14.5449 10.3196 14.0398 9.90918C13.5347 9.49879 12.9034 9.17522 12.1457 8.93846C11.4039 8.68592 10.5358 8.55965 9.54139 8.55965C8.46808 8.55965 7.52104 8.67803 6.70028 8.91479V17.1777ZM29.808 14.0525C30.8181 14.0525 31.7494 14.2498 32.6017 14.6444C33.454 15.039 34.188 15.5756 34.8036 16.2543C35.4349 16.9172 35.9242 17.7064 36.2715 18.6219C36.6345 19.5216 36.816 20.4765 36.816 21.4867C36.816 22.6705 36.6187 23.7517 36.2241 24.7303C35.8453 25.7089 35.3244 26.5533 34.6615 27.2636C33.9986 27.9581 33.2331 28.5026 32.365 28.8972C31.4968 29.2761 30.5893 29.4655 29.6422 29.4655C28.6478 29.4655 27.7245 29.2603 26.8721 28.8499C26.0356 28.4395 25.3095 27.8871 24.694 27.1926C24.0942 26.4981 23.6207 25.6931 23.2734 24.7776C22.9419 23.8622 22.7762 22.8994 22.7762 21.8892C22.7762 20.8474 22.9577 19.8609 23.3208 18.9297C23.6838 17.9827 24.181 17.1461 24.8123 16.42C25.4437 15.694 26.1855 15.1179 27.0379 14.6917C27.8902 14.2655 28.8136 14.0525 29.808 14.0525ZM29.3108 15.0942C28.853 15.0942 28.4111 15.1968 27.9849 15.402C27.5587 15.5914 27.1799 15.9071 26.8485 16.349C26.517 16.7752 26.2487 17.3355 26.0435 18.03C25.8383 18.7245 25.7357 19.5689 25.7357 20.5633C25.7357 21.5893 25.8383 22.5758 26.0435 23.5228C26.2645 24.4541 26.5722 25.2748 26.9668 25.9851C27.3614 26.6954 27.8429 27.2636 28.4111 27.6898C28.9793 28.1159 29.6107 28.329 30.3051 28.329C30.8102 28.329 31.2759 28.2343 31.702 28.0449C32.144 27.8397 32.5228 27.5162 32.8385 27.0742C33.1541 26.6323 33.3988 26.0561 33.5724 25.3459C33.7618 24.6198 33.8565 23.7359 33.8565 22.6942C33.8565 21.6524 33.7539 20.6738 33.5487 19.7583C33.3436 18.8271 33.0437 18.0221 32.6491 17.3434C32.2702 16.6489 31.7967 16.1044 31.2285 15.7098C30.6761 15.2994 30.0368 15.0942 29.3108 15.0942ZM46.0496 14.0525C47.0598 14.0525 47.991 14.2498 48.8434 14.6444C49.6957 15.039 50.4297 15.5756 51.0452 16.2543C51.6766 16.9172 52.1659 17.7064 52.5131 18.6219C52.8762 19.5216 53.0577 20.4765 53.0577 21.4867C53.0577 22.6705 52.8604 23.7517 52.4658 24.7303C52.087 25.7089 51.5661 26.5533 50.9032 27.2636C50.2403 27.9581 49.4747 28.5026 48.6066 28.8972C47.7385 29.2761 46.8309 29.4655 45.8839 29.4655C44.8895 29.4655 43.9661 29.2603 43.1138 28.8499C42.2773 28.4395 41.5512 27.8871 40.9356 27.1926C40.3358 26.4981 39.8623 25.6931 39.5151 24.7776C39.1836 23.8622 39.0179 22.8994 39.0179 21.8892C39.0179 20.8474 39.1994 19.8609 39.5624 18.9297C39.9255 17.9827 40.4226 17.1461 41.054 16.42C41.6854 15.694 42.4272 15.1179 43.2795 14.6917C44.1319 14.2655 45.0552 14.0525 46.0496 14.0525ZM45.5524 15.0942C45.0947 15.0942 44.6527 15.1968 44.2266 15.402C43.8004 15.5914 43.4216 15.9071 43.0901 16.349C42.7587 16.7752 42.4903 17.3355 42.2852 18.03C42.08 18.7245 41.9774 19.5689 41.9774 20.5633C41.9774 21.5893 42.08 22.5758 42.2852 23.5228C42.5061 24.4541 42.8139 25.2748 43.2085 25.9851C43.6031 26.6954 44.0845 27.2636 44.6527 27.6898C45.221 28.1159 45.8523 28.329 46.5468 28.329C47.0519 28.329 47.5175 28.2343 47.9437 28.0449C48.3856 27.8397 48.7645 27.5162 49.0801 27.0742C49.3958 26.6323 49.6405 26.0561 49.8141 25.3459C50.0035 24.6198 50.0982 23.7359 50.0982 22.6942C50.0982 21.6524 49.9956 20.6738 49.7904 19.7583C49.5852 18.8271 49.2853 18.0221 48.8907 17.3434C48.5119 16.6489 48.0384 16.1044 47.4702 15.7098C46.9177 15.2994 46.2785 15.0942 45.5524 15.0942ZM59.4739 6.45249V20.8711L63.191 17.5565C63.5224 17.2408 63.7829 16.9883 63.9723 16.7989C64.1775 16.6095 64.3274 16.4516 64.4221 16.3253C64.5326 16.1991 64.6036 16.1044 64.6352 16.0412C64.6668 15.9623 64.6826 15.8834 64.6826 15.8045C64.6826 15.5835 64.5957 15.402 64.4221 15.2599C64.2485 15.1179 63.9565 15.0311 63.5461 14.9995V14.4786H69.8676V14.9995C69.4256 15.0153 69.0231 15.0547 68.6601 15.1179C68.3129 15.1652 67.9814 15.252 67.6657 15.3783C67.3658 15.5046 67.0659 15.6782 66.766 15.8992C66.4661 16.1044 66.1426 16.3648 65.7953 16.6805L62.0782 20.1372L65.7953 24.8487C66.3162 25.5116 66.7502 26.0482 67.0975 26.4586C67.4447 26.8532 67.7131 27.1373 67.9025 27.311C68.1392 27.5477 68.3365 27.7371 68.4944 27.8792C68.668 28.0212 68.8495 28.1396 69.0389 28.2343C69.2283 28.3132 69.4414 28.3685 69.6782 28.4001C69.9149 28.4316 70.2227 28.4474 70.6015 28.4474V29.0156H63.5461V28.4474C63.9565 28.4316 64.2327 28.3685 64.3748 28.258C64.5168 28.1475 64.5879 27.9897 64.5879 27.7845C64.5879 27.5635 64.3748 27.1768 63.9486 26.6244L59.4739 20.9658V25.7484C59.4739 26.2377 59.4896 26.6323 59.5212 26.9321C59.5528 27.2163 59.6001 27.4451 59.6633 27.6187C59.7422 27.7924 59.829 27.9265 59.9237 28.0212C60.0184 28.1002 60.1289 28.1712 60.2552 28.2343C60.3814 28.3132 60.5708 28.3685 60.8234 28.4001C61.0917 28.4158 61.4311 28.4316 61.8414 28.4474V29.0156H54.4309V28.4474C54.9202 28.4474 55.3227 28.4158 55.6384 28.3527C55.954 28.2896 56.1987 28.1633 56.3723 27.9739C56.5617 27.7845 56.688 27.524 56.7511 27.1926C56.8143 26.8453 56.8458 26.3876 56.8458 25.8194V12.6082C56.8458 11.7559 56.8379 11.0772 56.8222 10.5721C56.8064 10.0512 56.7827 9.70398 56.7511 9.53036C56.6722 9.13576 56.5459 8.86744 56.3723 8.72538C56.1987 8.58332 55.9777 8.5123 55.7094 8.5123C55.4884 8.5123 55.157 8.607 54.715 8.79641L54.4309 8.22819L58.7636 6.45249H59.4739Z" fill="black"/>
<rect x="74.0312" y="3.04688" width="88.3443" height="32.5592" rx="16.2796" fill="#3F78E0"/>
<path d="M94.855 6.98947V14.4237H94.2631C93.9948 12.4191 93.3398 10.8881 92.298 9.83057C91.2563 8.77305 89.9304 8.24429 88.3205 8.24429C87.768 8.24429 87.263 8.33899 86.8052 8.5284C86.3475 8.71781 85.945 8.97035 85.5978 9.28603C85.2505 9.58592 84.9822 9.93317 84.7928 10.3278C84.6034 10.7224 84.5087 11.1327 84.5087 11.5589C84.5087 11.9535 84.5876 12.3323 84.7454 12.6954C84.9033 13.0426 85.3926 13.595 86.2133 14.3527C87.5865 15.2208 88.8098 15.939 89.8831 16.5072C90.8933 17.0596 92.2586 17.8962 93.979 19.0168C94.7209 19.585 95.2891 20.2638 95.6837 21.0529C96.0783 21.8264 96.2756 22.6392 96.2756 23.4916C96.2756 24.2965 96.1099 25.0621 95.7784 25.7881C95.4469 26.5142 94.9813 27.1534 94.3815 27.7059C93.7975 28.2425 93.0872 28.6687 92.2507 28.9844C91.4141 29.3158 90.4987 29.4816 89.5043 29.4816C88.8729 29.4816 88.2889 29.4342 87.7523 29.3395C87.6576 29.3237 87.405 29.2527 86.9946 29.1264C86.6 29.0159 86.1739 28.8976 85.7161 28.7713C85.2584 28.645 84.8322 28.5266 84.4376 28.4162C84.043 28.3057 83.8142 28.2504 83.751 28.2504C83.4827 28.2504 83.2696 28.3293 83.1118 28.4872C82.9697 28.645 82.8592 28.9765 82.7803 29.4816H82.1884V22.0947H82.7803C83.0644 23.6099 83.4354 24.7701 83.8931 25.575C84.1141 25.9539 84.4061 26.309 84.7691 26.6405C85.1479 26.9561 85.5662 27.2403 86.0239 27.4928C86.4974 27.7296 87.0025 27.919 87.5392 28.061C88.0758 28.1873 88.6204 28.2504 89.1728 28.2504C89.8357 28.2504 90.4276 28.1557 90.9485 27.9663C91.4852 27.7769 91.935 27.5244 92.298 27.2087C92.6768 26.8772 92.961 26.4984 93.1504 26.0722C93.3556 25.6461 93.4582 25.1962 93.4582 24.7227C93.4582 24.1861 93.3082 23.6494 93.0083 23.1128C92.7242 22.5761 92.2349 22.0473 91.5404 21.5265C90.8617 21.1161 90.0567 20.6347 89.1255 20.0822C87.3419 19.0563 85.7556 18.0698 84.3666 17.1228C83.5932 16.5072 83.0013 15.8364 82.5909 15.1103C82.1963 14.3685 81.999 13.5477 81.999 12.648C81.999 11.8904 82.1569 11.1722 82.4725 10.4935C82.7882 9.79901 83.2223 9.19132 83.7747 8.67045C84.3429 8.14958 85.0137 7.7392 85.7872 7.43931C86.5606 7.13941 87.3971 6.98947 88.2968 6.98947C89.4332 6.98947 90.6407 7.26568 91.9192 7.81812C92.2191 7.94439 92.4717 8.04699 92.6768 8.12591C92.882 8.20483 93.0478 8.2364 93.174 8.22061C93.4582 8.22061 93.687 8.14169 93.8606 7.98385C94.0343 7.82601 94.1684 7.49455 94.2631 6.98947H94.855ZM111.333 28.9844L103.023 10.896V25.2673C103.023 26.0091 103.071 26.5931 103.165 27.0193C103.276 27.4297 103.426 27.7374 103.615 27.9426C103.82 28.1478 104.065 28.2741 104.349 28.3214C104.633 28.3688 104.957 28.3925 105.32 28.3925H106.077V28.9844H98.5958V28.3925H99.3535C99.7323 28.3925 100.064 28.3688 100.348 28.3214C100.632 28.2583 100.869 28.1242 101.058 27.919C101.248 27.698 101.39 27.3823 101.484 26.9719C101.579 26.5458 101.626 25.9775 101.626 25.2673V11.2038C101.626 10.6987 101.603 10.2567 101.555 9.87793C101.508 9.48333 101.382 9.15186 101.176 8.88354C100.987 8.61521 100.687 8.41002 100.277 8.26796C99.8822 8.12591 99.3219 8.05488 98.5958 8.05488V7.46298H104.681L112.494 24.2965L120.165 7.46298H126.249V8.05488H125.515C125.121 8.05488 124.781 8.08645 124.497 8.14958C124.213 8.21272 123.976 8.35478 123.787 8.57575C123.598 8.78094 123.456 9.09662 123.361 9.52279C123.266 9.93317 123.219 10.4935 123.219 11.2038V25.2673C123.219 26.0091 123.266 26.5931 123.361 27.0193C123.471 27.4297 123.621 27.7374 123.811 27.9426C124.016 28.1478 124.26 28.2741 124.545 28.3214C124.829 28.3688 125.152 28.3925 125.515 28.3925H126.249V28.9844H117.11V28.3925H117.868C118.247 28.3925 118.578 28.3609 118.862 28.2978C119.147 28.2346 119.383 28.1005 119.573 27.8953C119.778 27.6743 119.928 27.3586 120.023 26.9482C120.117 26.5379 120.165 25.9775 120.165 25.2673V10.896L111.878 28.9844H111.333ZM140.218 28.9844L131.908 10.896V25.2673C131.908 26.0091 131.955 26.5931 132.05 27.0193C132.16 27.4297 132.31 27.7374 132.5 27.9426C132.705 28.1478 132.95 28.2741 133.234 28.3214C133.518 28.3688 133.841 28.3925 134.204 28.3925H134.962V28.9844H127.48V28.3925H128.238C128.617 28.3925 128.948 28.3688 129.232 28.3214C129.517 28.2583 129.753 28.1242 129.943 27.919C130.132 27.698 130.274 27.3823 130.369 26.9719C130.464 26.5458 130.511 25.9775 130.511 25.2673V11.2038C130.511 10.6987 130.487 10.2567 130.44 9.87793C130.393 9.48333 130.266 9.15186 130.061 8.88354C129.872 8.61521 129.572 8.41002 129.161 8.26796C128.767 8.12591 128.206 8.05488 127.48 8.05488V7.46298H133.565L141.378 24.2965L149.049 7.46298H155.134V8.05488H154.4C154.005 8.05488 153.666 8.08645 153.382 8.14958C153.098 8.21272 152.861 8.35478 152.672 8.57575C152.482 8.78094 152.34 9.09662 152.245 9.52279C152.151 9.93317 152.103 10.4935 152.103 11.2038V25.2673C152.103 26.0091 152.151 26.5931 152.245 27.0193C152.356 27.4297 152.506 27.7374 152.695 27.9426C152.9 28.1478 153.145 28.2741 153.429 28.3214C153.713 28.3688 154.037 28.3925 154.4 28.3925H155.134V28.9844H145.995V28.3925H146.753C147.131 28.3925 147.463 28.3609 147.747 28.2978C148.031 28.2346 148.268 28.1005 148.457 27.8953C148.662 27.6743 148.812 27.3586 148.907 26.9482C149.002 26.5379 149.049 25.9775 149.049 25.2673V10.896L140.763 28.9844H140.218Z" fill="white"/>
</svg>
